<svg width="28" height="28" viewBox="0 0 28 28" fill="none" xmlns="http://www.w3.org/2000/svg">
<g clip-path="url(#clip0_955_2)">
<path d="M20.6719 19.2924H9.92465L7.7175 21.1766L5.51035 19.2924H0.861328V20.5844C0.861328 22.2312 1.99882 23.5727 3.40548 23.5991C3.53629 24.413 3.85283 25.1484 4.32925 25.7238C5.03392 26.5749 6.05837 27.0444 7.21362 27.0444H14.3196C15.4748 27.0444 16.4993 26.5749 17.204 25.7228C17.6804 25.1473 17.9969 24.4119 18.1277 23.598C18.8749 23.5845 19.5462 23.1996 20.0119 22.5951C20.4468 22.0156 20.6787 21.3089 20.6719 20.5844V19.2924ZM5.65247 17.5698L7.71588 19.0873L9.79761 17.5698H20.6719V17.1391C20.6713 16.6429 20.4996 16.162 20.1858 15.7776C19.872 15.3932 19.4353 15.1288 18.9492 15.0288C18.9051 13.4305 18.2494 12.0928 17.0376 11.1529C15.9168 10.2786 14.4192 9.81781 12.7046 9.81781H8.82861C5.15613 9.81781 2.6685 11.9049 2.58398 15.0288C2.09793 15.1288 1.6612 15.3932 1.3474 15.7776C1.0336 16.162 0.861934 16.6429 0.861328 17.1391V17.5698H5.65247Z" fill="white"/>
<path d="M24.929 5.51117H20.9136L21.3938 3.59148L23.7942 2.76569L23.2559 1.20453L19.9182 2.28119L19.1382 5.51117H11.1973V7.23383H12.2066L12.3068 8.09515H12.7046C14.8041 8.09515 16.6699 8.68193 18.0944 9.79197C18.8866 10.4024 19.5289 11.1859 19.972 12.0826C20.2451 12.6388 20.4395 13.2304 20.5497 13.8402C21.3518 14.3341 21.9467 15.1032 22.223 16.0038C22.4993 16.9044 22.4382 17.8748 22.0511 18.7336C22.2779 19.3243 22.3943 19.9517 22.3945 20.5844C22.3945 21.787 21.9854 22.9331 21.2425 23.8117C20.7828 24.3594 20.1939 24.784 19.529 25.0472C19.3024 25.6929 18.9648 26.2941 18.5315 26.8237C18.468 26.9001 18.4028 26.9749 18.3361 27.0471H22.3945C23.2559 27.0471 23.6327 26.6164 23.7404 25.8089L25.6999 7.23652H26.7012V5.51117H24.929Z" fill="white"/>
</g>
<defs>
<clipPath id="clip0_955_2">
<rect width="27.5625" height="27.5625" fill="white" transform="translate(0 0.343201)"/>
</clipPath>
</defs>
</svg>
