<svg width="85" height="32" viewBox="0 0 85 32" fill="none" xmlns="http://www.w3.org/2000/svg">
<path d="M20.6719 20.918H9.92465L7.7175 22.8021L5.51035 20.918H0.861328V22.21C0.861328 23.8567 1.99882 25.1982 3.40548 25.2246C3.53629 26.0386 3.85283 26.7739 4.32925 27.3494C5.03392 28.2005 6.05837 28.6699 7.21362 28.6699H14.3196C15.4748 28.6699 16.4993 28.2005 17.204 27.3483C17.6804 26.7728 17.9969 26.0375 18.1277 25.2235C18.8749 25.2101 19.5462 24.8252 20.0119 24.2206C20.4468 23.6411 20.6787 22.9345 20.6719 22.21V20.918ZM5.65247 19.1953L7.71588 20.7129L9.79761 19.1953H20.6719V18.7646C20.6713 18.2684 20.4996 17.7876 20.1858 17.4032C19.872 17.0188 19.4353 16.7543 18.9492 16.6544C18.9051 15.0561 18.2494 13.7183 17.0376 12.7784C15.9168 11.9042 14.4192 11.4434 12.7046 11.4434H8.82861C5.15613 11.4434 2.6685 13.5305 2.58398 16.6544C2.09793 16.7543 1.6612 17.0188 1.3474 17.4032C1.0336 17.7876 0.861934 18.2684 0.861328 18.7646V19.1953H5.65247Z" fill="white"/>
<path d="M24.929 7.13672H20.9136L21.3938 5.21703L23.7942 4.39124L23.2559 2.83008L19.9182 3.90674L19.1382 7.13672H11.1973V8.85938H12.2066L12.3068 9.7207H12.7046C14.8041 9.7207 16.6699 10.3075 18.0944 11.4175C18.8866 12.028 19.5289 12.8115 19.972 13.7081C20.2451 14.2644 20.4395 14.8559 20.5497 15.4658C21.3518 15.9597 21.9467 16.7288 22.223 17.6294C22.4993 18.53 22.4382 19.5004 22.0511 20.3592C22.2779 20.9499 22.3943 21.5772 22.3945 22.21C22.3945 23.4126 21.9854 24.5587 21.2425 25.4373C20.7828 25.9849 20.1939 26.4095 19.529 26.6727C19.3024 27.3184 18.9648 27.9196 18.5315 28.4492C18.468 28.5257 18.4028 28.6005 18.3361 28.6726H22.3945C23.2559 28.6726 23.6327 28.2419 23.7404 27.4345L25.6999 8.86207H26.7012V7.13672H24.929Z" fill="white"/>
<path d="M36.1491 24.8866C35.5952 24.8866 35.1574 25.0716 34.8356 25.4416C34.5161 25.8093 34.3564 26.3138 34.3564 26.955C34.3564 27.6146 34.5104 28.1249 34.8184 28.4857C35.1286 28.8442 35.5699 29.0235 36.1422 29.0235C36.4938 29.0235 36.8949 28.9603 37.3453 28.8339V29.3475C36.996 29.4785 36.5651 29.544 36.0525 29.544C35.3102 29.544 34.7368 29.3188 34.3323 28.8683C33.9301 28.4179 33.729 27.7778 33.729 26.9481C33.729 26.4287 33.8255 25.9737 34.0186 25.5829C34.2139 25.1922 34.4943 24.8912 34.8597 24.6797C35.2275 24.4683 35.6595 24.3626 36.156 24.3626C36.6846 24.3626 37.1465 24.4591 37.5418 24.6521L37.2936 25.1555C36.9121 24.9762 36.5306 24.8866 36.1491 24.8866ZM41.6201 27.5825C41.6201 28.1984 41.465 28.6799 41.1547 29.0269C40.8445 29.3717 40.4158 29.544 39.8688 29.544C39.531 29.544 39.2311 29.4648 38.9691 29.3062C38.7071 29.1476 38.5048 28.9201 38.3623 28.6236C38.2198 28.3271 38.1486 27.9801 38.1486 27.5825C38.1486 26.9665 38.3026 26.4873 38.6105 26.1449C38.9185 25.8001 39.346 25.6278 39.893 25.6278C40.4216 25.6278 40.841 25.8036 41.1513 26.1552C41.4639 26.5069 41.6201 26.9826 41.6201 27.5825ZM38.7415 27.5825C38.7415 28.0651 38.8381 28.4328 39.0311 28.6856C39.2242 28.9384 39.508 29.0649 39.8826 29.0649C40.2573 29.0649 40.5411 28.9396 40.7342 28.6891C40.9295 28.4363 41.0272 28.0674 41.0272 27.5825C41.0272 27.1021 40.9295 26.7378 40.7342 26.4896C40.5411 26.2391 40.255 26.1138 39.8757 26.1138C39.5011 26.1138 39.2184 26.2368 39.0277 26.4827C38.8369 26.7286 38.7415 27.0952 38.7415 27.5825ZM46.7223 26.1414H45.7605V29.4751H45.1882V26.1414H44.5125V25.8829L45.1882 25.676V25.4657C45.1882 24.5372 45.5939 24.073 46.4052 24.073C46.6051 24.073 46.8396 24.1132 47.1085 24.1936L46.9602 24.6521C46.7396 24.5809 46.5511 24.5453 46.3948 24.5453C46.1788 24.5453 46.0191 24.6177 45.9156 24.7625C45.8122 24.9049 45.7605 25.1348 45.7605 25.4519V25.6967H46.7223V26.1414ZM44.3298 26.1414H43.368V29.4751H42.7957V26.1414H42.12V25.8829L42.7957 25.676V25.4657C42.7957 24.5372 43.2014 24.073 44.0127 24.073C44.2126 24.073 44.447 24.1132 44.7159 24.1936L44.5677 24.6521C44.3471 24.5809 44.1586 24.5453 44.0023 24.5453C43.7863 24.5453 43.6266 24.6177 43.5231 24.7625C43.4197 24.9049 43.368 25.1348 43.368 25.4519V25.6967H44.3298V26.1414ZM49.0149 29.544C48.4564 29.544 48.0151 29.374 47.6911 29.0338C47.3693 28.6937 47.2084 28.2214 47.2084 27.6169C47.2084 27.0079 47.3578 26.5241 47.6566 26.1656C47.9577 25.807 48.361 25.6278 48.8667 25.6278C49.3401 25.6278 49.7147 25.784 49.9905 26.0966C50.2663 26.4069 50.4042 26.8171 50.4042 27.3273V27.6893H47.8014C47.8129 28.1329 47.9244 28.4696 48.1358 28.6994C48.3495 28.9293 48.6495 29.0442 49.0356 29.0442C49.4424 29.0442 49.8446 28.9591 50.2422 28.7891V29.2993C50.0399 29.3866 49.848 29.4487 49.6665 29.4854C49.4872 29.5245 49.27 29.544 49.0149 29.544ZM48.8598 26.107C48.5564 26.107 48.3139 26.2058 48.1323 26.4034C47.9531 26.6011 47.8474 26.8746 47.8152 27.2239H49.7906C49.7906 26.8631 49.7101 26.5873 49.5492 26.3965C49.3884 26.2035 49.1585 26.107 48.8598 26.107ZM52.9794 29.544C52.421 29.544 51.9797 29.374 51.6556 29.0338C51.3339 28.6937 51.173 28.2214 51.173 27.6169C51.173 27.0079 51.3224 26.5241 51.6212 26.1656C51.9222 25.807 52.3256 25.6278 52.8312 25.6278C53.3046 25.6278 53.6793 25.784 53.9551 26.0966C54.2309 26.4069 54.3688 26.8171 54.3688 27.3273V27.6893H51.7659C51.7774 28.1329 51.8889 28.4696 52.1003 28.6994C52.3141 28.9293 52.614 29.0442 53.0001 29.0442C53.4069 29.0442 53.8091 28.9591 54.2067 28.7891V29.2993C54.0045 29.3866 53.8126 29.4487 53.631 29.4854C53.4517 29.5245 53.2346 29.544 52.9794 29.544ZM52.8243 26.107C52.5209 26.107 52.2785 26.2058 52.0969 26.4034C51.9176 26.6011 51.8119 26.8746 51.7797 27.2239H53.7551C53.7551 26.8631 53.6747 26.5873 53.5138 26.3965C53.3529 26.2035 53.1231 26.107 52.8243 26.107ZM58.0024 25.4382C58.0024 25.5967 58.0437 25.7484 58.1265 25.8932C58.2092 26.0357 58.3505 26.2081 58.5505 26.4103C58.847 26.238 59.0527 26.0794 59.1676 25.9346C59.2848 25.7875 59.3434 25.6186 59.3434 25.4278C59.3434 25.2508 59.2836 25.1072 59.1641 24.9969C59.0469 24.8843 58.8895 24.828 58.6918 24.828C58.4873 24.828 58.3207 24.8831 58.192 24.9934C58.0656 25.1038 58.0024 25.252 58.0024 25.4382ZM58.5367 29.0304C59.0906 29.0304 59.5503 28.8534 59.9157 28.4995L58.4092 27.0378C58.154 27.194 57.9736 27.3239 57.8679 27.4273C57.7622 27.5284 57.684 27.6376 57.6335 27.7548C57.5829 27.872 57.5576 28.0053 57.5576 28.1547C57.5576 28.4236 57.6461 28.6374 57.8231 28.796C58.0024 28.9522 58.2402 29.0304 58.5367 29.0304ZM56.9647 28.1685C56.9647 27.8697 57.044 27.6054 57.2025 27.3756C57.3634 27.1458 57.6507 26.9137 58.0644 26.6792C57.8691 26.4609 57.7358 26.2954 57.6645 26.1828C57.5956 26.0702 57.5404 25.953 57.499 25.8312C57.4577 25.7094 57.437 25.5829 57.437 25.4519C57.437 25.1072 57.5496 24.8383 57.7748 24.6452C58.0001 24.4522 58.3138 24.3557 58.716 24.3557C59.0883 24.3557 59.3813 24.4522 59.5951 24.6452C59.8088 24.836 59.9157 25.1026 59.9157 25.445C59.9157 25.691 59.8375 25.9185 59.6813 26.1276C59.525 26.3345 59.2664 26.5448 58.9056 26.7585L60.3087 28.1065C60.4374 27.964 60.5397 27.7973 60.6155 27.6066C60.6936 27.4135 60.7592 27.2032 60.812 26.9757H61.3912C61.2349 27.633 60.9993 28.1317 60.6845 28.4719L61.7152 29.4751H60.9258L60.288 28.8615C60.0168 29.1051 59.741 29.2797 59.4606 29.3855C59.1802 29.4912 58.8677 29.544 58.5229 29.544C58.0288 29.544 57.645 29.4222 57.3715 29.1786C57.1003 28.935 56.9647 28.5983 56.9647 28.1685ZM67.0691 29.4751H64.2594V24.4349H67.0691V24.9555H64.8455V26.5793H66.9347V27.0964H64.8455V28.9511H67.0691V29.4751ZM70.4269 29.4751L70.3131 28.9373H70.2856C70.0971 29.174 69.9086 29.3349 69.7202 29.4199C69.534 29.5027 69.3007 29.544 69.0204 29.544C68.6457 29.544 68.3516 29.4475 68.1378 29.2545C67.9264 29.0614 67.8206 28.7868 67.8206 28.4305C67.8206 27.6675 68.4308 27.2676 69.6512 27.2308L70.2925 27.2101V26.9757C70.2925 26.6792 70.2281 26.4609 70.0994 26.3207C69.973 26.1782 69.7696 26.107 69.4892 26.107C69.1743 26.107 68.8181 26.2035 68.4205 26.3965L68.2447 25.9587C68.4308 25.8576 68.6342 25.7783 68.8549 25.7208C69.0778 25.6634 69.3007 25.6347 69.5237 25.6347C69.9741 25.6347 70.3074 25.7346 70.5234 25.9346C70.7418 26.1345 70.8509 26.4551 70.8509 26.8964V29.4751H70.4269ZM69.1341 29.0717C69.4904 29.0717 69.7696 28.9741 69.9718 28.7787C70.1764 28.5834 70.2787 28.3099 70.2787 27.9582V27.6169L69.7064 27.6411C69.2513 27.6572 68.9227 27.7284 68.7204 27.8548C68.5205 27.9789 68.4205 28.1731 68.4205 28.4374C68.4205 28.6443 68.4826 28.8017 68.6067 28.9097C68.7331 29.0177 68.9089 29.0717 69.1341 29.0717ZM73.2538 29.0717C73.3549 29.0717 73.4526 29.0649 73.5468 29.0511C73.6411 29.035 73.7158 29.0189 73.7709 29.0028V29.4406C73.7089 29.4705 73.6169 29.4946 73.4951 29.513C73.3756 29.5337 73.2676 29.544 73.1711 29.544C72.4402 29.544 72.0748 29.1591 72.0748 28.3892V26.1414H71.5335V25.8656L72.0748 25.6278L72.3161 24.8211H72.6471V25.6967H73.7433V26.1414H72.6471V28.365C72.6471 28.5926 72.7011 28.7672 72.8091 28.889C72.9171 29.0108 73.0653 29.0717 73.2538 29.0717ZM76.1255 29.544C75.567 29.544 75.1258 29.374 74.8017 29.0338C74.4799 28.6937 74.3191 28.2214 74.3191 27.6169C74.3191 27.0079 74.4685 26.5241 74.7672 26.1656C75.0683 25.807 75.4717 25.6278 75.9773 25.6278C76.4507 25.6278 76.8253 25.784 77.1011 26.0966C77.3769 26.4069 77.5148 26.8171 77.5148 27.3273V27.6893H74.912C74.9235 28.1329 75.035 28.4696 75.2464 28.6994C75.4602 28.9293 75.7601 29.0442 76.1462 29.0442C76.553 29.0442 76.9552 28.9591 77.3528 28.7891V29.2993C77.1506 29.3866 76.9586 29.4487 76.7771 29.4854C76.5978 29.5245 76.3806 29.544 76.1255 29.544ZM75.9704 26.107C75.667 26.107 75.4245 26.2058 75.243 26.4034C75.0637 26.6011 74.958 26.8746 74.9258 27.2239H76.9012C76.9012 26.8631 76.8208 26.5873 76.6599 26.3965C76.499 26.2035 76.2692 26.107 75.9704 26.107ZM80.2176 25.6278C80.3854 25.6278 80.5359 25.6416 80.6692 25.6691L80.5899 26.2C80.4337 26.1656 80.2958 26.1483 80.1762 26.1483C79.8706 26.1483 79.6086 26.2724 79.3902 26.5206C79.1742 26.7689 79.0662 27.078 79.0662 27.448V29.4751H78.4939V25.6967H78.9662L79.0317 26.3965H79.0593C79.1995 26.1506 79.3684 25.961 79.5661 25.8277C79.7637 25.6944 79.9809 25.6278 80.2176 25.6278ZM80.7761 25.6967H81.3897L82.2171 27.8514C82.3987 28.3432 82.5113 28.6983 82.555 28.9166H82.5826C82.6124 28.7994 82.6745 28.5994 82.7687 28.3168C82.8653 28.0318 83.1778 27.1584 83.7064 25.6967H84.3201L82.6963 29.9991C82.5354 30.4243 82.347 30.7254 82.1309 30.9023C81.9172 31.0816 81.6541 31.1712 81.3415 31.1712C81.1668 31.1712 80.9944 31.1517 80.8244 31.1126V30.6541C80.9508 30.6817 81.0921 30.6955 81.2484 30.6955C81.6414 30.6955 81.9218 30.4749 82.0896 30.0336L82.2999 29.4958L80.7761 25.6967Z" fill="white"/>
<path d="M38.5539 1.87241C39.0779 1.87241 39.6226 1.95515 40.188 2.12063C40.7534 2.28611 41.2705 2.55501 41.7393 2.92733C42.222 3.28586 42.615 3.76161 42.9184 4.35457C43.2217 4.93374 43.3734 5.64391 43.3734 6.48508C43.3734 7.24352 43.2286 7.98127 42.9391 8.69833C42.6633 9.4154 42.2634 10.0704 41.7393 10.6634C41.2291 11.2563 40.6086 11.7666 39.8777 12.194C39.1469 12.6077 38.3333 12.8904 37.437 13.0421C37.437 13.6075 37.4576 14.097 37.499 14.5107C37.5128 14.8968 37.5266 15.2278 37.5404 15.5036C37.568 15.7656 37.5886 15.9931 37.6024 16.1862C37.63 16.3792 37.6576 16.5516 37.6852 16.7033C37.7127 16.8688 37.7472 17.0273 37.7886 17.179C37.5128 17.3859 37.2508 17.5376 37.0026 17.6341C36.7544 17.7306 36.5337 17.7996 36.3407 17.8409C36.12 17.8961 35.9132 17.9099 35.7201 17.8823C35.6512 17.703 35.5891 17.5031 35.534 17.2824C35.4788 17.0756 35.4374 16.7998 35.4099 16.4551C35.3961 16.1103 35.3892 15.6759 35.3892 15.1519C35.3892 14.6141 35.403 13.9315 35.4305 13.1042C35.3202 13.0904 35.203 13.0835 35.0789 13.0835C34.9548 13.0697 34.8376 13.049 34.7273 13.0214C34.6307 12.8008 34.5687 12.6077 34.5411 12.4422C34.5135 12.2768 34.4997 12.1389 34.4997 12.0286C34.4997 11.8907 34.5135 11.7803 34.5411 11.6976C34.6514 11.7114 34.7617 11.7252 34.8721 11.739C34.9824 11.739 35.0858 11.739 35.1823 11.739C35.2926 11.7528 35.3961 11.7597 35.4926 11.7597C35.5202 11.1253 35.5478 10.4703 35.5753 9.79462C35.6167 9.10513 35.6443 8.43633 35.6581 7.78821C35.6857 7.14009 35.7063 6.51956 35.7201 5.9266C35.7477 5.31985 35.7684 4.78205 35.7822 4.3132C35.3685 4.58899 35.0031 4.94753 34.6859 5.3888C34.3825 5.83007 34.1826 6.34029 34.086 6.91946C33.9068 6.89188 33.7551 6.80914 33.631 6.67124C33.5069 6.51956 33.4035 6.36787 33.3207 6.21618C33.2242 6.03692 33.1414 5.83696 33.0725 5.61633C33.0036 5.35432 33.0036 5.09232 33.0725 4.83031C33.1277 4.55452 33.2242 4.29941 33.3621 4.06498C33.5 3.81677 33.6586 3.60303 33.8378 3.42376C34.0171 3.2307 34.1895 3.07902 34.3549 2.9687C34.6583 2.78943 34.9617 2.63085 35.2651 2.49295C35.5684 2.34127 35.9132 2.21716 36.2993 2.12063C36.451 1.96894 36.6165 1.83105 36.7957 1.70694C36.9888 1.58283 37.1749 1.50699 37.3542 1.47941C37.5748 1.42425 37.699 1.56904 37.7265 1.91378C37.8506 1.89999 37.9816 1.8931 38.1195 1.8931C38.2574 1.87931 38.4022 1.87241 38.5539 1.87241ZM37.437 11.4908C37.8093 11.3804 38.2161 11.215 38.6573 10.9943C39.0986 10.7737 39.5123 10.4841 39.8984 10.1256C40.2845 9.75325 40.6086 9.29819 40.8706 8.76039C41.1326 8.22259 41.2636 7.57447 41.2636 6.81604C41.2636 6.23687 41.1602 5.74733 40.9533 5.34743C40.7603 4.93374 40.5052 4.60278 40.188 4.35457C39.8708 4.09256 39.5192 3.9064 39.1331 3.79608C38.7608 3.67198 38.3884 3.60992 38.0161 3.60992C37.9472 3.60992 37.8782 3.60992 37.8093 3.60992C37.7403 3.60992 37.6714 3.61682 37.6024 3.63061C37.5611 4.07188 37.5404 4.54762 37.5404 5.05784C37.5404 5.40259 37.5335 5.82317 37.5197 6.3196C37.5059 6.80225 37.4921 7.32626 37.4783 7.89163C37.4645 8.45701 37.4507 9.04997 37.437 9.67051C37.437 10.291 37.437 10.8978 37.437 11.4908ZM43.8492 8.67765C43.8492 8.59491 43.9595 8.50528 44.1801 8.40875C44.4008 8.31222 44.6421 8.23638 44.9041 8.18122C45.1799 8.11227 45.4281 8.0778 45.6487 8.0778C45.8832 8.06401 46.0004 8.11227 46.0004 8.22259C46.0004 8.42943 45.9866 8.72591 45.959 9.11203C45.9314 9.48435 45.897 9.88425 45.8556 10.3117C45.8142 10.7254 45.7728 11.146 45.7315 11.5735C45.6901 11.9872 45.6625 12.3388 45.6487 12.6284C45.6212 12.9318 45.5936 13.2627 45.566 13.6213C45.5384 13.9246 45.5177 14.2625 45.5039 14.6348C45.4902 15.0071 45.4902 15.3864 45.5039 15.7725C45.5039 15.8414 45.435 15.9104 45.2971 15.9793C45.1592 16.0483 45.0075 16.0965 44.842 16.1241C44.6766 16.1655 44.518 16.1862 44.3663 16.1862C44.2146 16.1862 44.1319 16.1586 44.1181 16.1034C44.0905 16.0483 44.0629 15.9517 44.0353 15.8138C44.0078 15.6759 43.9802 15.4829 43.9526 15.2347C43.925 14.9727 43.9043 14.6417 43.8905 14.2418C43.8768 13.8281 43.8837 13.3317 43.9112 12.7525C43.9664 11.608 43.9733 10.7254 43.9319 10.1049C43.8905 9.47056 43.863 8.99481 43.8492 8.67765ZM45.2971 4.56141C45.5729 4.56141 45.8349 4.64415 46.0831 4.80963C46.3313 4.97511 46.4554 5.19574 46.4554 5.47154C46.4554 5.67838 46.4003 5.87833 46.29 6.07139C46.1934 6.26445 46.0693 6.43682 45.9176 6.5885C45.766 6.74019 45.5936 6.8643 45.4005 6.96083C45.2075 7.04357 45.0282 7.08494 44.8627 7.08494C44.6421 7.08494 44.4628 7.05046 44.3249 6.98151C44.187 6.89877 44.0767 6.80914 43.994 6.71261C43.925 6.60229 43.8768 6.48508 43.8492 6.36097C43.8216 6.23687 43.8078 6.11965 43.8078 6.00934C43.8078 5.87144 43.8285 5.71975 43.8699 5.55427C43.9112 5.37501 43.9871 5.21643 44.0974 5.07853C44.2077 4.92684 44.3594 4.80273 44.5525 4.70621C44.7455 4.60968 44.9937 4.56141 45.2971 4.56141ZM44.78 6.48508C44.8627 6.48508 44.9524 6.4575 45.0489 6.40234C45.1592 6.33339 45.2557 6.25755 45.3385 6.17481C45.435 6.09207 45.5108 6.00244 45.566 5.90591C45.635 5.80938 45.6694 5.72665 45.6694 5.6577C45.6694 5.54738 45.6143 5.49222 45.5039 5.49222C45.435 5.49222 45.3454 5.5198 45.235 5.57496C45.1385 5.63012 45.042 5.69907 44.9455 5.7818C44.8489 5.85075 44.7662 5.93349 44.6972 6.03002C44.6421 6.11276 44.6145 6.1955 44.6145 6.27824C44.6145 6.41613 44.6697 6.48508 44.78 6.48508ZM49.5788 15.4415C49.565 15.5243 49.4892 15.6139 49.3513 15.7104C49.2272 15.7932 49.0755 15.869 48.8962 15.9379C48.7307 16.0069 48.5722 16.0483 48.4205 16.0621C48.2688 16.0896 48.1654 16.0758 48.1102 16.0207C48.055 15.9655 47.9654 15.8621 47.8413 15.7104C47.7172 15.5587 47.6414 15.3105 47.6138 14.9658C47.5862 14.6072 47.5724 14.1591 47.5724 13.6213C47.5724 13.0697 47.5655 12.4629 47.5517 11.801V10.9736C47.5517 10.7254 47.5448 10.4358 47.531 10.1049C47.531 9.77393 47.5241 9.42919 47.5104 9.07066C47.6345 9.00171 47.7586 8.93965 47.8827 8.8845C48.0206 8.81555 48.1447 8.76039 48.255 8.71902C48.3791 8.66386 48.4963 8.62249 48.6066 8.59491C48.8962 8.51217 49.1169 8.46391 49.2685 8.45012C49.4202 8.43633 49.5099 8.48459 49.5374 8.59491C49.5512 8.67765 49.5443 8.8776 49.5168 9.19476C49.4892 9.47056 49.4547 9.89115 49.4133 10.4565C49.372 11.0081 49.303 11.7803 49.2065 12.7732C49.3858 12.3319 49.5306 11.9527 49.6409 11.6355C49.765 11.3184 49.8684 11.0633 49.9511 10.8702C50.0339 10.6358 50.1097 10.4496 50.1787 10.3117C50.2476 10.1325 50.3373 9.93252 50.4476 9.71188C50.5579 9.49124 50.6682 9.2844 50.7785 9.09134C50.9026 8.89829 51.0129 8.72591 51.1095 8.57423C51.2198 8.42254 51.3025 8.33291 51.3577 8.30533C51.3991 8.27775 51.5232 8.27775 51.73 8.30533C51.9369 8.33291 52.1575 8.40185 52.3919 8.51217C52.6263 8.6087 52.8539 8.75349 53.0745 8.94655C53.2951 9.12582 53.4399 9.34645 53.5089 9.60846C53.5916 9.91183 53.6192 10.3117 53.5916 10.8082C53.5778 11.3046 53.5434 11.8148 53.4882 12.3388C53.4468 12.8628 53.4124 13.3593 53.3848 13.8281C53.3572 14.297 53.3848 14.6555 53.4675 14.9037C53.4951 15.0416 53.5365 15.1657 53.5916 15.276C53.6192 15.3864 53.6537 15.4898 53.6951 15.5863C53.7502 15.669 53.8054 15.7311 53.8605 15.7725C53.5296 15.9242 53.2607 16.0345 53.0538 16.1034C52.847 16.1724 52.6884 16.2206 52.5781 16.2482C52.4402 16.2896 52.3437 16.3034 52.2885 16.2896C52.1644 16.2482 52.0541 16.1448 51.9575 15.9793C51.8748 15.8138 51.799 15.5518 51.73 15.1933C51.7024 15.083 51.6886 14.9037 51.6886 14.6555C51.7024 14.3935 51.7231 14.1039 51.7507 13.7867C51.7783 13.4558 51.8059 13.1179 51.8334 12.7732C51.8748 12.4147 51.9024 12.0837 51.9162 11.7803C51.9438 11.4632 51.9644 11.1943 51.9782 10.9736C51.992 10.7392 51.992 10.5806 51.9782 10.4979C51.9093 10.2497 51.8128 10.0773 51.6886 9.98078C51.5645 9.87046 51.468 9.85667 51.3991 9.93941C51.2198 10.1463 51.0267 10.4841 50.8199 10.953C50.6268 11.408 50.4407 11.9113 50.2614 12.4629C50.0821 13.0007 49.9305 13.5385 49.8063 14.0763C49.6822 14.6141 49.6064 15.0692 49.5788 15.4415ZM57.3355 16.1862C57.046 16.1862 56.7495 16.1103 56.4461 15.9586C56.1427 15.8069 55.86 15.5794 55.598 15.276C55.336 14.9589 55.1223 14.5728 54.9568 14.1177C54.7913 13.6488 54.7086 13.1042 54.7086 12.4836C54.7086 11.5735 54.8258 10.822 55.0602 10.229C55.2947 9.62225 55.5774 9.13961 55.9083 8.78107C56.253 8.40875 56.6254 8.14674 57.0253 7.99506C57.4252 7.84337 57.7906 7.76753 58.1216 7.76753C58.4663 7.76753 58.749 7.82958 58.9696 7.95369C59.2041 8.06401 59.3971 8.19501 59.5488 8.3467V7.95369C59.6315 7.88474 59.7212 7.82269 59.8177 7.76753C59.928 7.71237 60.0383 7.671 60.1486 7.64342C60.259 7.60205 60.3762 7.58137 60.5003 7.58137H60.8106C60.8933 7.59516 60.976 7.60895 61.0588 7.62273C61.1553 7.63652 61.2242 7.671 61.2656 7.72616C61.1829 9.53261 61.1139 10.9943 61.0588 12.1113C61.0036 13.2283 60.9622 14.097 60.9347 14.7176C60.8933 15.4484 60.8657 15.9793 60.8519 16.3103C60.8243 16.8894 60.7485 17.4617 60.6244 18.0271C60.5003 18.6063 60.3072 19.1234 60.0452 19.5784C59.7832 20.0335 59.4385 20.3989 59.011 20.6747C58.5835 20.9505 58.0595 21.0884 57.439 21.0884C56.9012 21.0884 56.4668 20.985 56.1358 20.7781C55.8187 20.5713 55.5705 20.3162 55.3912 20.0128C55.2257 19.7094 55.1154 19.3854 55.0602 19.0406C55.0051 18.7097 54.9775 18.4063 54.9775 18.1305C54.9775 18.0616 55.012 17.9581 55.0809 17.8202C55.1637 17.6823 55.274 17.5376 55.4119 17.3859C55.5636 17.248 55.7497 17.1239 55.9704 17.0135C56.191 16.9032 56.4392 16.8343 56.715 16.8067C56.5909 17.179 56.5151 17.5169 56.4875 17.8202C56.4599 17.9857 56.453 18.1512 56.4668 18.3167C56.4668 18.7717 56.5564 19.151 56.7357 19.4543C56.915 19.7577 57.1908 19.9094 57.5631 19.9094C57.963 19.9094 58.287 19.737 58.5352 19.3923C58.7835 19.0613 58.9696 18.6545 59.0937 18.1719C59.2316 17.703 59.3213 17.2066 59.3626 16.6826C59.4178 16.1724 59.4454 15.738 59.4454 15.3795V14.7796C59.3626 14.9313 59.2592 15.0899 59.1351 15.2554C59.0248 15.4208 58.8869 15.5725 58.7214 15.7104C58.5559 15.8483 58.356 15.9586 58.1216 16.0414C57.9009 16.1379 57.6389 16.1862 57.3355 16.1862ZM58.1836 8.94655C57.9492 8.94655 57.7217 9.04997 57.501 9.25682C57.2942 9.46366 57.108 9.73946 56.9425 10.0842C56.7771 10.4152 56.6461 10.7944 56.5495 11.2219C56.453 11.6493 56.4047 12.0768 56.4047 12.5043C56.4047 12.7801 56.4185 13.0628 56.4461 13.3524C56.4875 13.642 56.5564 13.9109 56.653 14.1591C56.7633 14.3935 56.9012 14.5866 57.0666 14.7382C57.2321 14.8899 57.4528 14.9658 57.7286 14.9658C57.9354 14.952 58.1285 14.8692 58.3077 14.7176C58.4594 14.5934 58.6111 14.3935 58.7628 14.1177C58.9283 13.8419 59.0593 13.4489 59.1558 12.9387C59.2661 13.049 59.3488 13.1524 59.404 13.2489C59.473 13.3455 59.5281 13.4351 59.5695 13.5178C59.5833 13.4075 59.5902 13.2765 59.5902 13.1248C59.604 12.9732 59.6108 12.8008 59.6108 12.6077C59.6108 12.2354 59.5902 11.8355 59.5488 11.408C59.5074 10.9667 59.4316 10.5668 59.3213 10.2083C59.2247 9.84978 59.0799 9.5533 58.8869 9.31887C58.7076 9.07066 58.4732 8.94655 58.1836 8.94655ZM67.078 17.6961C66.4299 17.6961 65.8231 17.5238 65.2577 17.179C64.7062 16.8343 64.2166 16.3378 63.7891 15.6897C63.3617 15.0416 63.0238 14.2556 62.7756 13.3317C62.5412 12.394 62.424 11.3391 62.424 10.1669C62.424 8.99481 62.5825 7.90542 62.8997 6.89877C63.2169 5.89212 63.6375 5.01647 64.1615 4.27183C64.6855 3.52718 65.2922 2.94801 65.9817 2.53432C66.685 2.10684 67.4089 1.8931 68.1536 1.8931C68.912 1.8931 69.5326 1.99652 70.0152 2.20337C70.4978 2.41021 70.8771 2.6929 71.1529 3.05144C71.4287 3.39618 71.6148 3.80298 71.7113 4.27183C71.8079 4.74068 71.8423 5.23022 71.8148 5.74044C71.801 6.07139 71.732 6.40924 71.6079 6.75398C71.4838 7.08494 71.3321 7.38141 71.1529 7.64342C70.9736 7.90542 70.7805 8.10538 70.5737 8.24327C70.3668 8.38117 70.1669 8.40875 69.9738 8.32601C69.8221 8.28464 69.6567 8.23638 69.4774 8.18122C69.1465 8.0709 68.7534 7.91232 68.2984 7.70547C68.5742 7.51242 68.8293 7.29178 69.0637 7.04357C69.2568 6.82293 69.4291 6.55403 69.5808 6.23687C69.7463 5.9197 69.829 5.55427 69.829 5.14058C69.829 4.78205 69.7808 4.47867 69.6843 4.23046C69.6015 3.96845 69.4843 3.76161 69.3326 3.60992C69.1947 3.44444 69.0361 3.32723 68.8569 3.25828C68.6776 3.17554 68.4983 3.13418 68.3191 3.13418C67.864 3.13418 67.4089 3.31344 66.9539 3.67198C66.5126 4.03051 66.1127 4.53383 65.7542 5.18195C65.4094 5.81628 65.1267 6.57471 64.9061 7.45726C64.6855 8.3398 64.5752 9.29819 64.5752 10.3324C64.5752 11.146 64.651 11.9044 64.8027 12.6077C64.9682 13.2972 65.1819 13.8971 65.4439 14.4073C65.7059 14.9037 66.0093 15.2967 66.354 15.5863C66.7126 15.8621 67.0918 16 67.4917 16C67.7951 16 68.0846 15.9173 68.3604 15.7518C68.6362 15.5863 68.8707 15.3588 69.0637 15.0692C69.2568 14.7796 69.4085 14.428 69.5188 14.0143C69.6429 13.6006 69.7049 13.1455 69.7049 12.6491C69.7049 12.194 69.6911 11.8424 69.6636 11.5942C69.6498 11.3322 69.6291 11.1391 69.6015 11.015C69.5877 10.8771 69.567 10.7944 69.5395 10.7668C69.5257 10.7392 69.5188 10.7254 69.5188 10.7254C69.5326 10.7254 69.6429 10.7323 69.8497 10.7461C70.0566 10.7599 70.2841 10.7944 70.5323 10.8495C70.7943 10.8909 71.0356 10.9667 71.2563 11.0771C71.4769 11.1736 71.6217 11.3115 71.6907 11.4908C71.7458 11.67 71.7803 12.0079 71.7941 12.5043C71.8079 12.9869 71.801 13.5247 71.7734 14.1177C71.7596 14.6969 71.7389 15.276 71.7113 15.8552C71.6976 16.4344 71.6907 16.9101 71.6907 17.2824C71.6907 17.379 71.5941 17.4893 71.4011 17.6134C71.2218 17.7375 71.015 17.8409 70.7805 17.9237C70.5599 18.0202 70.3531 18.0754 70.16 18.0891C69.9669 18.1029 69.8635 18.0547 69.8497 17.9444V16.6412V15.9793C69.6291 16.4206 69.2981 16.8136 68.8569 17.1583C68.4156 17.5169 67.8226 17.6961 67.078 17.6961ZM73.5523 8.67765C73.5523 8.59491 73.6626 8.50528 73.8832 8.40875C74.1039 8.31222 74.3452 8.23638 74.6072 8.18122C74.883 8.11227 75.1312 8.0778 75.3518 8.0778C75.5863 8.06401 75.7035 8.11227 75.7035 8.22259C75.7035 8.42943 75.6897 8.72591 75.6621 9.11203C75.6345 9.48435 75.6 9.88425 75.5587 10.3117C75.5173 10.7254 75.4759 11.146 75.4346 11.5735C75.3932 11.9872 75.3656 12.3388 75.3518 12.6284C75.3243 12.9318 75.2967 13.2627 75.2691 13.6213C75.2415 13.9246 75.2208 14.2625 75.207 14.6348C75.1933 15.0071 75.1933 15.3864 75.207 15.7725C75.207 15.8414 75.1381 15.9104 75.0002 15.9793C74.8623 16.0483 74.7106 16.0965 74.5451 16.1241C74.3797 16.1655 74.2211 16.1862 74.0694 16.1862C73.9177 16.1862 73.835 16.1586 73.8212 16.1034C73.7936 16.0483 73.766 15.9517 73.7384 15.8138C73.7109 15.6759 73.6833 15.4829 73.6557 15.2347C73.6281 14.9727 73.6074 14.6417 73.5936 14.2418C73.5799 13.8281 73.5867 13.3317 73.6143 12.7525C73.6695 11.608 73.6764 10.7254 73.635 10.1049C73.5936 9.47056 73.5661 8.99481 73.5523 8.67765ZM75.0002 4.56141C75.276 4.56141 75.538 4.64415 75.7862 4.80963C76.0344 4.97511 76.1585 5.19574 76.1585 5.47154C76.1585 5.67838 76.1034 5.87833 75.9931 6.07139C75.8965 6.26445 75.7724 6.43682 75.6207 6.5885C75.469 6.74019 75.2967 6.8643 75.1036 6.96083C74.9106 7.04357 74.7313 7.08494 74.5658 7.08494C74.3452 7.08494 74.1659 7.05046 74.028 6.98151C73.8901 6.89877 73.7798 6.80914 73.6971 6.71261C73.6281 6.60229 73.5799 6.48508 73.5523 6.36097C73.5247 6.23687 73.5109 6.11965 73.5109 6.00934C73.5109 5.87144 73.5316 5.71975 73.573 5.55427C73.6143 5.37501 73.6902 5.21643 73.8005 5.07853C73.9108 4.92684 74.0625 4.80273 74.2555 4.70621C74.4486 4.60968 74.6968 4.56141 75.0002 4.56141ZM74.4831 6.48508C74.5658 6.48508 74.6555 6.4575 74.752 6.40234C74.8623 6.33339 74.9588 6.25755 75.0416 6.17481C75.1381 6.09207 75.2139 6.00244 75.2691 5.90591C75.338 5.80938 75.3725 5.72665 75.3725 5.6577C75.3725 5.54738 75.3174 5.49222 75.207 5.49222C75.1381 5.49222 75.0485 5.5198 74.9381 5.57496C74.8416 5.63012 74.7451 5.69907 74.6486 5.7818C74.552 5.85075 74.4693 5.93349 74.4003 6.03002C74.3452 6.11276 74.3176 6.1955 74.3176 6.27824C74.3176 6.41613 74.3728 6.48508 74.4831 6.48508ZM82.7362 9.64983C82.7362 9.84288 82.6811 10.0428 82.5708 10.2497C82.4742 10.4427 82.3501 10.6289 82.1984 10.8082C82.0468 10.9874 81.8744 11.146 81.6813 11.2839C81.5021 11.408 81.3297 11.4839 81.1642 11.5114C81.2745 11.084 81.309 10.753 81.2676 10.5186C81.2263 10.2842 81.1573 10.1118 81.0608 10.0015C80.9505 9.87736 80.8126 9.80841 80.6471 9.79462C80.3989 9.79462 80.1576 9.93941 79.9231 10.229C79.7025 10.5048 79.5094 10.8495 79.344 11.2632C79.1785 11.6631 79.0475 12.0975 78.951 12.5664C78.8544 13.0214 78.8062 13.4351 78.8062 13.8074C78.7924 14.0694 78.7993 14.3245 78.8268 14.5728C78.8406 14.7796 78.8613 14.9933 78.8889 15.214C78.9303 15.4346 78.9854 15.607 79.0544 15.7311C78.9716 15.8 78.8337 15.8828 78.6407 15.9793C78.4614 16.0758 78.2684 16.1379 78.0615 16.1655C77.8685 16.1931 77.6892 16.1586 77.5237 16.0621C77.372 15.9655 77.2893 15.7587 77.2755 15.4415C77.2479 15.1381 77.2272 14.8003 77.2134 14.428C77.2134 14.0419 77.2134 13.6626 77.2134 13.2903C77.2272 12.9042 77.241 12.525 77.2548 12.1527C77.2686 11.7803 77.2893 11.4356 77.3169 11.1184C77.3445 10.5117 77.3582 10.0428 77.3582 9.71188C77.3582 9.38093 77.3513 9.06376 77.3376 8.76039C77.3376 8.70523 77.4272 8.62939 77.6065 8.53286C77.7995 8.42254 78.0064 8.32601 78.227 8.24327C78.4614 8.16053 78.6752 8.11227 78.8682 8.09848C79.0613 8.08469 79.1578 8.12606 79.1578 8.22259C79.1578 8.37428 79.1371 8.67765 79.0957 9.13271C79.0682 9.57398 79.0268 10.0359 78.9716 10.5186C79.0682 10.2566 79.1923 9.97388 79.344 9.67051C79.5094 9.36714 79.6956 9.08445 79.9024 8.82244C80.1093 8.56044 80.3437 8.3467 80.6057 8.18122C80.8677 8.00195 81.1573 7.91232 81.4745 7.91232C81.7227 7.91232 81.9226 7.98816 82.0743 8.13985C82.2398 8.29154 82.3708 8.46391 82.4673 8.65697C82.5639 8.85002 82.6328 9.04308 82.6742 9.23613C82.7156 9.42919 82.7362 9.56709 82.7362 9.64983Z" fill="white"/>
</svg>
