<svg width="58" height="58" viewBox="0 0 58 58" fill="none" xmlns="http://www.w3.org/2000/svg">
<path d="M53.4392 13.3196C44.7992 -0.000440311 27.1592 -3.96044 13.4792 4.31956C0.159167 12.5996 -4.16083 30.5996 4.47917 43.9196L5.19917 44.9996L2.31917 55.7996L13.1192 52.9196L14.1992 53.6396C18.8792 56.1596 23.9192 57.5996 28.9592 57.5996C34.3592 57.5996 39.7592 56.1596 44.4392 53.2796C57.7592 44.6396 61.7192 26.9996 53.4392 13.3196ZM45.8792 41.0396C44.4392 43.1996 42.6392 44.6396 40.1192 44.9996C38.6792 44.9996 36.8792 45.7196 29.6792 42.8396C23.5592 39.9596 18.5192 35.2796 14.9192 29.8796C12.7592 27.3596 11.6792 24.1196 11.3192 20.8796C11.3192 17.9996 12.3992 15.4796 14.1992 13.6796C14.9192 12.9596 15.6392 12.5996 16.3592 12.5996H18.1592C18.8792 12.5996 19.5992 12.5996 19.9592 14.0396C20.6792 15.8396 22.4792 20.1596 22.4792 20.5196C22.8392 20.8796 22.8392 21.5996 22.4792 21.9596C22.8392 22.6796 22.4792 23.3996 22.1192 23.7596C21.7592 24.1196 21.3992 24.8396 21.0392 25.1996C20.3192 25.5596 19.9592 26.2796 20.3192 26.9996C21.7592 29.1596 23.5592 31.3196 25.3592 33.1196C27.5192 34.9196 29.6792 36.3596 32.1992 37.4396C32.9192 37.7996 33.6392 37.7996 33.9992 37.0796C34.3592 36.3596 36.1592 34.5596 36.8792 33.8396C37.5992 33.1196 37.9592 33.1196 38.6792 33.4796L44.4392 36.3596C45.1592 36.7196 45.8792 37.0796 46.2392 37.4396C46.5992 38.5196 46.5992 39.9596 45.8792 41.0396Z" fill="url(#paint0_linear_963_4)"/>
<defs>
<linearGradient id="paint0_linear_963_4" x1="0.159082" y1="-0.000439128" x2="57.7591" y2="57.5996" gradientUnits="userSpaceOnUse">
<stop stop-color="#E60000"/>
<stop offset="1" stop-color="#E85300"/>
</linearGradient>
</defs>
</svg>
